<svg width="24" height="24" viewBox="0 0 24 24" fill="none" xmlns="http://www.w3.org/2000/svg">
<g clip-path="url(#clip0_4188_3250)">
<g clip-path="url(#clip1_4188_3250)">
<path fill-rule="evenodd" clip-rule="evenodd" d="M21.9574 12C21.9574 6.50043 17.4996 2.04255 12 2.04255C6.50043 2.04255 2.04255 6.50043 2.04255 12C2.04255 17.4996 6.50043 21.9574 12 21.9574C17.4996 21.9574 21.9574 17.4996 21.9574 12ZM7.32766 0.944681C8.80851 0.316596 10.3813 0 12 0C13.6187 0 15.1915 0.316596 16.6723 0.944681C18.1021 1.54723 19.3838 2.41021 20.4868 3.51319C21.5847 4.61617 22.4528 5.89787 23.0553 7.32766C23.6834 8.80851 24 10.3813 24 12C24 13.6187 23.6834 15.1915 23.0553 16.6723C22.4528 18.1021 21.5898 19.3838 20.4868 20.4868C19.3838 21.5847 18.1021 22.4528 16.6723 23.0553C15.1915 23.6834 13.6187 24 12 24C10.3813 24 8.80851 23.6834 7.32766 23.0553C5.89787 22.4528 4.61617 21.5898 3.51319 20.4868C2.41532 19.3838 1.54723 18.1021 0.944681 16.6723C0.316596 15.1915 0 13.6187 0 12C0 10.3813 0.316596 8.80851 0.944681 7.32766C1.54723 5.89787 2.41021 4.61617 3.51319 3.51319C4.61617 2.41532 5.89787 1.54723 7.32766 0.944681ZM16.9175 12C16.9175 13.0576 16.0601 13.9149 15.0026 13.9149C13.945 13.9149 13.0877 13.0576 13.0877 12C13.0877 10.9424 13.945 10.0851 15.0026 10.0851C16.0601 10.0851 16.9175 10.9424 16.9175 12ZM10.5345 10.0238C11.592 10.0238 12.4494 9.16651 12.4494 8.10894C12.4494 7.05137 11.592 6.19405 10.5345 6.19405C9.47691 6.19405 8.61958 7.05137 8.61958 8.10894C8.61958 9.16651 9.47691 10.0238 10.5345 10.0238ZM12.4494 15.8962C12.4494 16.9537 11.5921 17.8111 10.5345 17.8111C9.47692 17.8111 8.61959 16.9537 8.61959 15.8962C8.61959 14.8386 9.47692 13.9813 10.5345 13.9813C11.5921 13.9813 12.4494 14.8386 12.4494 15.8962Z" fill="black"/>
</g>
</g>
<defs>
<clipPath id="clip0_4188_3250">
<rect width="24" height="24" fill="white"/>
</clipPath>
<clipPath id="clip1_4188_3250">
<rect width="24" height="24" fill="white"/>
</clipPath>
</defs>
</svg>
