<svg width="24" height="24" viewBox="0 0 24 24" fill="none" xmlns="http://www.w3.org/2000/svg">
<g clip-path="url(#clip0_4188_3248)">
<g clip-path="url(#clip1_4188_3248)">
<path fill-rule="evenodd" clip-rule="evenodd" d="M21.9574 12C21.9574 6.50043 17.4996 2.04255 12 2.04255C6.50043 2.04255 2.04255 6.50043 2.04255 12C2.04255 17.4996 6.50043 21.9574 12 21.9574C17.4996 21.9574 21.9574 17.4996 21.9574 12ZM7.32766 0.944681C8.80851 0.316596 10.3813 0 12 0C13.6187 0 15.1915 0.316596 16.6723 0.944681C18.1021 1.54723 19.3838 2.41021 20.4868 3.51319C21.5847 4.61617 22.4528 5.89787 23.0553 7.32766C23.6834 8.80851 24 10.3813 24 12C24 13.6187 23.6834 15.1915 23.0553 16.6723C22.4528 18.1021 21.5898 19.3838 20.4868 20.4868C19.3838 21.5847 18.1021 22.4528 16.6723 23.0553C15.1915 23.6834 13.6187 24 12 24C10.3813 24 8.80851 23.6834 7.32766 23.0553C5.89787 22.4528 4.61617 21.5898 3.51319 20.4868C2.41532 19.3838 1.54723 18.1021 0.944681 16.6723C0.316596 15.1915 0 13.6187 0 12C0 10.3813 0.316596 8.80851 0.944681 7.32766C1.54723 5.89787 2.41021 4.61617 3.51319 3.51319C4.61617 2.41532 5.89787 1.54723 7.32766 0.944681ZM12 4.34043C7.77191 4.34043 4.34042 7.77192 4.34042 12C4.34042 16.2281 7.77191 19.6596 12 19.6596C16.2281 19.6596 19.6596 16.2281 19.6596 12C19.6596 7.77192 16.2281 4.34043 12 4.34043Z" fill="black"/>
</g>
</g>
<defs>
<clipPath id="clip0_4188_3248">
<rect width="24" height="24" fill="white"/>
</clipPath>
<clipPath id="clip1_4188_3248">
<rect width="24" height="24" fill="white"/>
</clipPath>
</defs>
</svg>
