<svg width="24" height="24" viewBox="0 0 24 24" fill="none" xmlns="http://www.w3.org/2000/svg">
<g clip-path="url(#clip0_4188_3251)">
<g clip-path="url(#clip1_4188_3251)">
<path fill-rule="evenodd" clip-rule="evenodd" d="M21.9574 12C21.9574 6.50043 17.4996 2.04255 12 2.04255C6.50043 2.04255 2.04255 6.50043 2.04255 12C2.04255 17.4996 6.50043 21.9574 12 21.9574C17.4996 21.9574 21.9574 17.4996 21.9574 12ZM7.32766 0.944681C8.80851 0.316596 10.3813 0 12 0C13.6187 0 15.1915 0.316596 16.6723 0.944681C18.1021 1.54723 19.3838 2.41021 20.4868 3.51319C21.5847 4.61617 22.4528 5.89787 23.0553 7.32766C23.6834 8.80851 24 10.3813 24 12C24 13.6187 23.6834 15.1915 23.0553 16.6723C22.4528 18.1021 21.5898 19.3838 20.4868 20.4868C19.3838 21.5847 18.1021 22.4528 16.6723 23.0553C15.1915 23.6834 13.6187 24 12 24C10.3813 24 8.80851 23.6834 7.32766 23.0553C5.89787 22.4528 4.61617 21.5898 3.51319 20.4868C2.41532 19.3838 1.54723 18.1021 0.944681 16.6723C0.316596 15.1915 0 13.6187 0 12C0 10.3813 0.316596 8.80851 0.944681 7.32766C1.54723 5.89787 2.41021 4.61617 3.51319 3.51319C4.61617 2.41532 5.89787 1.54723 7.32766 0.944681ZM10.7234 18.434C10.7234 19.1387 11.2953 19.7106 12 19.7106C12.7047 19.7106 13.2766 19.1387 13.2766 18.434V5.56596C13.2766 4.86128 12.7047 4.28936 12 4.28936C11.2953 4.28936 10.7234 4.86128 10.7234 5.56596V18.434ZM6.63829 14.8085C6.63829 15.5132 7.21021 16.0851 7.91489 16.0851C8.61957 16.0851 9.19148 15.5132 9.19148 14.8085V9.19149C9.19148 8.48681 8.61957 7.9149 7.91489 7.9149C7.21021 7.9149 6.63829 8.48681 6.63829 9.19149V14.8085ZM16.0851 16.0851C15.3804 16.0851 14.8085 15.5132 14.8085 14.8085V9.19149C14.8085 8.48681 15.3804 7.9149 16.0851 7.9149C16.7898 7.9149 17.3617 8.48681 17.3617 9.19149V14.8085C17.3617 15.5132 16.7898 16.0851 16.0851 16.0851Z" fill="black"/>
</g>
</g>
<defs>
<clipPath id="clip0_4188_3251">
<rect width="24" height="24" fill="white"/>
</clipPath>
<clipPath id="clip1_4188_3251">
<rect width="24" height="24" fill="white"/>
</clipPath>
</defs>
</svg>
